<?xml version="1.0" encoding="UTF-8" standalone="no"?>
<!DOCTYPE svg PUBLIC "-//W3C//DTD SVG 1.1//EN" "http://www.w3.org/Graphics/SVG/1.1/DTD/svg11.dtd">
<svg width="100%" height="100%" viewBox="0 0 512 512" version="1.1" xmlns="http://www.w3.org/2000/svg" xmlns:xlink="http://www.w3.org/1999/xlink" xml:space="preserve" xmlns:serif="http://www.serif.com/" style="fill-rule:evenodd;clip-rule:evenodd;stroke-linejoin:round;stroke-miterlimit:2;">
    <g id="Package-Icons" serif:id="Package Icons" transform="matrix(1,0,0,1,0,2.34131)">
        <g id="Box" transform="matrix(1,0,0,1,2.11992,-2.81953)">
            <path d="M247.92,325.256L247.92,507.977L77.646,441.384L79.377,343.053L194.818,396.442L247.92,325.256ZM259.841,325.256L259.841,507.977L430.114,441.384L428.383,343.053L312.942,396.442L259.841,325.256ZM241.433,306.804L190.845,378.165L20.341,296.235L74.245,230.259L241.433,306.804ZM266.327,306.804L316.916,378.165L487.419,296.235L433.515,230.259L266.327,306.804Z" style="fill:rgb(199,161,114);fill-rule:nonzero;"/>
        </g>
        <g id="Clip-Window" serif:id="Clip Window" transform="matrix(1.03628,0,0,1.03628,-11.359,-19.0013)">
            <path d="M82.654,223.645L243.988,297.51L268.012,297.51L429.346,223.645L526.106,223.645L526.106,-10.237L-10.014,-10.237L-10.014,223.645L82.654,223.645Z" style="fill:none;"/>
            <clipPath id="_clip1">
                <path d="M82.654,223.645L243.988,297.51L268.012,297.51L429.346,223.645L526.106,223.645L526.106,-10.237L-10.014,-10.237L-10.014,223.645L82.654,223.645Z"/>
            </clipPath>
            <g clip-path="url(#_clip1)">
                <g id="SuperNodes" transform="matrix(0.407779,0,0,0.407779,136.706,-1.01888)">
                    <path d="M262.816,749.835C239.314,748.947 220.157,747.339 192.205,743.908C172.541,741.493 141.594,736.431 134.455,734.461C132.186,733.835 127.124,732.668 123.205,731.867C119.286,731.067 113.718,729.704 110.83,728.838C107.943,727.973 103.218,726.622 100.33,725.836C82.352,720.943 57.269,710.474 49.231,704.509C47.527,703.244 44.712,701.197 42.975,699.96C34.614,694.002 28.044,685.301 26.413,678.023C25.556,674.196 26.542,670.429 29.801,665.085C30.681,663.641 31.953,661.014 32.628,659.246C33.303,657.479 36.24,652.044 39.155,647.169C42.07,642.293 44.455,637.984 44.455,637.591C44.455,637.199 45.514,635.209 46.809,633.169C48.103,631.129 51.015,625.916 53.281,621.585C55.546,617.253 57.988,612.866 58.708,611.835C59.428,610.803 61.97,606.247 64.358,601.71C66.746,597.172 69.331,592.548 70.103,591.434C70.874,590.319 72.365,587.45 73.416,585.059C74.466,582.667 76.087,579.866 77.017,578.835C77.947,577.803 79.315,575.272 80.057,573.21C80.799,571.147 81.98,568.785 82.682,567.96C83.384,567.135 85.065,564.435 86.417,561.96C89.239,556.793 91.508,554.085 93.016,554.085C93.594,554.085 95.982,555.895 98.323,558.109C109.863,569.017 134.051,581.127 158.455,588.214C160.311,588.753 165.374,590.284 169.705,591.616C174.036,592.947 178.93,594.288 180.58,594.595C182.23,594.901 185.605,595.69 188.08,596.348C190.555,597.005 195.449,598.05 198.955,598.669C226.577,603.55 226.877,603.595 246.205,605.796C269.565,608.456 322.155,608.711 347.08,606.285C377.568,603.317 405.768,597.96 431.455,590.257C440.042,587.682 441.823,587.069 453.955,582.513C459.97,580.254 473.247,574.321 475.705,572.794C476.324,572.41 479.071,570.926 481.81,569.497C484.548,568.068 488.344,565.554 490.244,563.909C492.144,562.265 495.525,559.707 497.757,558.225C499.989,556.744 502.222,555.042 502.718,554.444C503.469,553.539 504.107,554.111 506.538,557.871C508.142,560.354 509.455,562.632 509.455,562.934C509.455,563.236 510.855,565.841 512.566,568.722C516.757,575.778 518.943,579.65 522.544,586.402C526.925,594.616 531.191,602.174 532.665,604.335C533.368,605.366 535.165,608.741 536.658,611.835C538.152,614.928 540.596,619.316 542.09,621.585C543.584,623.853 546.33,628.747 548.191,632.46C550.053,636.172 552.005,639.716 552.529,640.335C553.591,641.588 556.258,646.453 557.463,649.335C557.895,650.366 559.911,653.91 561.944,657.21C568.986,668.638 568.973,668.604 569.002,675.585C569.035,683.383 567.974,685.701 560.856,693.39C554.414,700.347 545.515,706.39 533.455,711.995C531.186,713.05 528.318,714.389 527.08,714.971C524.25,716.302 511.567,721.172 507.58,722.459C496.214,726.128 481.413,730.21 472.13,732.236C469.545,732.8 467.111,733.459 466.722,733.699C466.333,733.94 461.866,734.809 456.797,735.63C451.728,736.452 444.052,737.8 439.74,738.626C425.326,741.389 418.74,742.333 390.955,745.62C385.799,746.23 374.493,747.264 365.83,747.917C357.168,748.571 348.393,749.26 346.33,749.448C338.473,750.163 278.837,750.439 262.816,749.835ZM297.638,641.893C317.9,641.893 334.351,658.343 334.351,678.605C334.351,698.868 317.9,715.318 297.638,715.318C277.375,715.318 260.925,698.868 260.925,678.605C260.925,658.343 277.375,641.893 297.638,641.893Z" style="fill:rgb(112,42,110);"/>
                    <g transform="matrix(0.863764,0,0,0.863764,-57.6454,-49.248)">
                        <path d="M411.32,133.695C584.713,133.695 725.486,274.468 725.486,447.861C725.486,621.254 643.425,735.387 411.32,735.387C179.215,735.387 97.154,621.254 97.154,447.861C97.154,274.468 237.927,133.695 411.32,133.695Z" style="fill:rgb(99,28,160);"/>
                    </g>
                    <path d="M270.398,542.087C271.429,541.281 272.618,540.613 273.04,540.604C273.462,540.596 275.582,539.419 277.751,537.99C279.92,536.562 283.437,534.518 285.567,533.448C287.696,532.378 290.748,530.541 292.347,529.365L295.255,527.226L302.148,530.719C311.961,535.693 323.944,541.337 324.688,541.337C325.844,541.337 324.247,531.466 320.601,516.08C319.802,512.706 319.148,509.289 319.148,508.486C319.148,507.683 320.582,505.492 322.335,503.619C331.261,494.08 336.773,487.744 336.773,487.023C336.773,485.833 332.073,485.179 319.736,484.654L308.698,484.184L307.189,480.151C305.828,476.511 303.527,472.583 296.955,462.673C295.755,460.863 294.316,458.551 293.758,457.535C292.655,455.525 292.748,455.358 283.237,476.495C279.071,485.754 279.23,485.618 271.486,486.546C249.082,489.232 249.275,489.179 250.905,492.226C251.872,494.033 264.031,505.627 269.133,509.608L271.242,511.253L270.094,517.909C269.462,521.57 268.618,527.411 268.218,530.889C267.819,534.367 267.259,538.647 266.974,540.4C266.378,544.066 267.292,544.517 270.398,542.087Z" style="fill:white;"/>
                    <path d="M180.548,479.275C180.691,478.553 180.247,474.097 179.56,469.373C178.874,464.648 178.5,460.294 178.729,459.696C178.958,459.099 180.523,457.395 182.206,455.911C189.419,449.549 193.919,445.025 193.696,444.357C193.565,443.963 191.278,442.998 188.615,442.212C174.339,437.998 171.398,436.958 171.403,436.126C171.409,435.084 165.104,422.445 163.502,420.289C162.008,418.277 161.123,419.245 156.929,427.475C151.429,438.267 152.311,437.625 140.638,439.342C135.075,440.161 130.439,440.832 130.335,440.834C130.232,440.836 130.148,441.327 130.148,441.924C130.148,442.522 131.351,443.929 132.822,445.051C134.293,446.173 136.165,448.4 136.981,450.001C137.797,451.601 138.969,453.104 139.584,453.34C141.259,453.982 142.749,457.415 142.459,459.962C141.882,465.044 140.55,475.123 140.154,477.4C139.906,478.827 140.046,479.837 140.492,479.837C140.911,479.837 143.227,478.733 145.638,477.383C148.05,476.033 152.325,473.96 155.14,472.776L160.257,470.622L163.117,472.23C164.69,473.114 166.476,473.837 167.086,473.837C167.696,473.837 169,474.47 169.984,475.244C172.492,477.216 178.348,480.518 179.405,480.556C179.891,480.573 180.405,479.997 180.548,479.275L180.548,479.275Z" style="fill:white;"/>
                    <path d="M410.368,456.51C421.967,450.388 420.691,450.379 430.643,456.663C436.1,460.109 440.703,461.413 441.626,459.775C441.801,459.466 441.343,457.188 440.61,454.713C439.877,452.238 438.572,447.513 437.711,444.213L436.144,438.213L439.699,435.213C441.655,433.563 445.031,430.441 447.201,428.275C449.372,426.109 451.513,424.338 451.96,424.338C452.407,424.338 452.639,423.936 452.476,423.446C452.003,422.028 444.612,420.654 437.273,420.619L430.523,420.587L428.077,415.525C423.381,405.806 419.746,399.963 418.396,399.963C417.032,399.963 411.929,409.32 409.535,416.21C408.198,420.06 408.95,419.759 397.61,420.974C393.417,421.423 387.272,422.822 386.501,423.502C385.612,424.287 399.877,437.838 401.593,437.838C403.087,437.838 402.904,440.368 400.837,448.32C398.281,458.156 398.042,461.838 399.961,461.838C400.133,461.838 404.816,459.44 410.368,456.51L410.368,456.51Z" style="fill:white;"/>
                    <path d="M256.428,396.587C256.628,396.587 258.756,395.283 261.157,393.69C263.558,392.096 267.885,389.576 270.773,388.089C273.66,386.602 277.286,384.635 278.831,383.717L281.638,382.048L283.706,383.57C284.843,384.407 287.46,386.035 289.523,387.189C291.585,388.343 295.973,390.821 299.273,392.696C308.43,397.898 313.255,400.337 314.387,400.337C315.467,400.337 315.346,398.11 313.845,390.363C313.462,388.383 313.128,385.346 313.103,383.613C313.078,381.88 312.291,376.582 311.351,371.84L309.644,363.218L314.958,358.155C317.881,355.37 323.44,350.091 327.312,346.423L334.351,339.755L332.562,338.591C331.561,337.94 324.045,336.344 315.495,334.967L300.217,332.506L297.555,327.234C296.091,324.335 293.421,318.972 291.621,315.318C289.821,311.663 287.57,307.613 286.618,306.318C285.666,305.022 284.455,302.866 283.927,301.525C283.398,300.184 282.697,299.087 282.368,299.087C282.039,299.087 281.008,300.353 280.077,301.9C279.146,303.447 277.296,306.4 275.965,308.462C274.635,310.525 271.172,316.769 268.271,322.337C262.435,333.538 262.688,333.331 254.648,333.493C251.152,333.564 239.88,334.883 230.835,336.279C229.186,336.534 228.398,337.069 228.397,337.934C228.397,338.637 234.015,344.665 240.882,351.328L253.366,363.444L251.795,370.453C250.022,378.363 248.229,389.442 247.602,396.354L247.181,400.995L251.622,398.791L256.428,396.587Z" style="fill:white;"/>
                    <path d="M81.398,359.087C82.842,358.536 85.466,357.135 87.229,355.974C88.992,354.813 92.129,353.135 94.199,352.244L97.963,350.625L102.243,352.755C104.597,353.926 107.811,355.68 109.384,356.651C113.539,359.217 117.379,361.337 117.869,361.337C118.442,361.337 117.5,353.169 116.2,346.851C115.621,344.04 115.148,341.054 115.148,340.215C115.148,339.306 118.023,335.724 122.273,331.337C126.192,327.293 129.398,323.765 129.398,323.497C129.398,322.158 123.664,320.837 117.846,320.837C109.704,320.837 108.041,320.191 106.87,316.571C106,313.881 101.399,305.638 99.058,302.575C98.475,301.812 97.663,301.394 97.254,301.647C96.272,302.254 90.041,313.997 88.955,317.288L88.104,319.869L81.188,320.401C77.385,320.693 72.166,321.334 69.592,321.825L64.91,322.719L72.779,330.487C77.107,334.76 80.647,338.64 80.647,339.109C80.645,340.743 78.509,352.092 77.414,356.283C76.301,360.547 76.458,361.835 77.954,360.707C78.404,360.367 79.954,359.638 81.398,359.087Z" style="fill:white;"/>
                    <path d="M497.634,357.775C497.614,354.799 495.53,343.434 494.463,340.483C493.564,337.997 493.6,337.927 497.732,334.091C500.03,331.958 503.314,329.097 505.029,327.733C508.515,324.961 509.055,322.645 506.448,321.654C505.513,321.298 501.046,320.609 496.522,320.122C491.998,319.635 488.266,319.175 488.229,319.099C487.414,317.447 485.466,312.936 484.445,310.337C483.716,308.481 482.556,306.119 481.866,305.087C481.177,304.056 480.027,302.248 479.311,301.07C478.594,299.891 477.734,299.216 477.4,299.57C476.673,300.338 472.494,308.424 469.964,313.958C468.969,316.134 467.541,318.243 466.792,318.644C466.043,319.045 461.483,319.863 456.658,320.461C451.834,321.06 447.576,321.859 447.197,322.238C445.789,323.646 450.583,328.658 458.98,334.56C461.359,336.232 461.399,337.84 459.308,347.567C456.801,359.223 456.814,359.087 458.24,359.087C458.934,359.087 460.931,358.105 462.677,356.904C464.422,355.703 467.858,353.741 470.312,352.544C472.765,351.347 475.469,349.926 476.32,349.385C477.686,348.517 478.476,348.747 483.07,351.353C485.932,352.977 489.96,355.527 492.023,357.021C496.592,360.331 497.652,360.473 497.634,357.775Z" style="fill:white;"/>
                    <path d="M351.244,280.952C361.584,270.153 364.078,267.5 370.898,260.046C373.992,256.664 378.717,251.627 381.398,248.852C384.079,246.077 387.623,242.057 389.273,239.918C390.923,237.78 393.061,235.831 394.023,235.587C396.548,234.947 406.143,236.528 431.273,241.722C443.807,244.313 460.803,246.932 461.375,246.361C461.619,246.116 461.075,244.971 460.165,243.814C459.256,242.658 458.085,240.7 457.565,239.462C457.044,238.225 454.564,234.76 452.054,231.763C449.545,228.766 447.256,225.559 446.968,224.638C446.68,223.716 444.851,221.106 442.904,218.837C440.957,216.569 438.893,213.862 438.318,212.824C436.836,210.146 426.8,196.855 425.354,195.655C423.134,193.812 424.003,191.694 430.761,182.462C432.573,179.987 434.691,176.718 435.468,175.197C436.245,173.675 438.994,169.446 441.577,165.798C444.16,162.15 447.243,157.319 448.429,155.064C449.615,152.808 451.501,149.781 452.62,148.337C456.053,143.907 456.663,142.392 455.233,141.843C453.243,141.08 437.197,142.898 428.273,144.898C423.735,145.915 416.31,147.451 411.773,148.311C407.235,149.172 401.196,150.567 398.353,151.411C395.509,152.255 392.472,152.761 391.603,152.534C390.734,152.308 387.118,149.162 383.567,145.543C367.994,129.669 343.485,106.337 342.385,106.337C342.063,106.337 341.625,107.772 341.411,109.525C340.315,118.549 338.574,137.29 337.877,147.587C337.444,153.981 336.849,161.561 336.556,164.431L336.023,169.649L332.648,170.624C330.792,171.159 328.26,172.078 327.021,172.665C325.783,173.251 320.552,175.418 315.396,177.479C299.002,184.032 296.34,185.127 293.273,186.576C291.623,187.356 287.923,189.045 285.052,190.33C278.347,193.331 277.721,193.856 278.691,195.667C279.5,197.179 282.447,198.648 289.148,200.88C291.417,201.636 298.335,204.093 304.523,206.34C310.71,208.588 317.798,211.15 320.273,212.033C322.748,212.917 325.448,213.926 326.273,214.275C327.098,214.624 330.184,215.809 333.13,216.909C338.44,218.889 338.492,218.936 338.934,222.06C339.178,223.794 339.55,229.094 339.76,233.837C340.121,242.023 341.276,265.772 341.986,279.587C342.166,283.094 342.332,286.722 342.356,287.65C342.378,288.578 342.582,289.337 342.807,289.337C343.031,289.337 346.828,285.564 351.244,280.952Z" style="fill:white;"/>
                    <path d="M245.813,241.712C245.707,238.412 245.439,233.35 245.218,230.462L244.816,225.212L247.669,222.418C249.239,220.881 252.27,218.001 254.405,216.018C257.858,212.811 260.013,208.953 258.948,207.887C258.461,207.401 245.501,204.147 241.417,203.486C238.389,202.996 238.263,202.856 236.442,197.973C232.289,186.841 231.352,184.708 230.029,183.385C228.687,182.044 228.574,182.088 226.085,184.931C223.702,187.653 221.536,191.092 217.326,198.84L215.629,201.962L204.576,202.712C194.297,203.41 193.508,203.57 193.303,204.998C192.961,207.391 196.503,212.999 201.002,217.187C205.553,221.422 206.439,223.55 205.208,227.282C203.756,231.681 201.616,244.227 202.166,245.117C202.813,246.164 214.046,242.567 217.635,240.164C218.934,239.294 221.043,238.149 222.321,237.619C224.456,236.735 224.863,236.824 227.343,238.715C231.916,242.203 242.941,248.101 244.514,247.902C245.881,247.728 245.99,247.212 245.813,241.712Z" style="fill:white;"/>
                </g>
            </g>
        </g>
    </g>
</svg>
